<mxfile host="Electron" agent="Mozilla/5.0 (Windows NT 10.0; Win64; x64) AppleWebKit/537.36 (KHTML, like Gecko) draw.io/27.0.5 Chrome/134.0.6998.205 Electron/35.3.0 Safari/537.36" version="27.0.5">
  <diagram name="Page-1" id="451w_Xi7lYEa9opf16qV">
    <mxGraphModel dx="1281" dy="634" grid="1" gridSize="10" guides="1" tooltips="1" connect="1" arrows="1" fold="1" page="1" pageScale="1" pageWidth="827" pageHeight="1169" math="0" shadow="0">
      <root>
        <mxCell id="0" />
        <mxCell id="1" parent="0" />
        <mxCell id="cu2-mT0G7-T65f8eakLL-1" value="&lt;&lt;interface&gt;&gt;&#xa;Command" style="swimlane;fontStyle=1;align=center;verticalAlign=top;childLayout=stackLayout;horizontal=1;startSize=71;horizontalStack=0;resizeParent=1;resizeParentMax=0;resizeLast=0;collapsible=0;marginBottom=0;" vertex="1" parent="1">
          <mxGeometry x="536" y="238" width="143" height="126" as="geometry" />
        </mxCell>
        <mxCell id="cu2-mT0G7-T65f8eakLL-2" style="line;strokeWidth=1;fillColor=none;align=left;verticalAlign=middle;spacingTop=-1;spacingLeft=3;spacingRight=3;rotatable=0;labelPosition=right;points=[];portConstraint=eastwest;strokeColor=inherit;" vertex="1" parent="cu2-mT0G7-T65f8eakLL-1">
          <mxGeometry y="71" width="143" height="8" as="geometry" />
        </mxCell>
        <mxCell id="cu2-mT0G7-T65f8eakLL-3" value="+execute()" style="text;strokeColor=none;fillColor=none;align=left;verticalAlign=top;spacingLeft=4;spacingRight=4;overflow=hidden;rotatable=0;points=[[0,0.5],[1,0.5]];portConstraint=eastwest;" vertex="1" parent="cu2-mT0G7-T65f8eakLL-1">
          <mxGeometry y="79" width="143" height="47" as="geometry" />
        </mxCell>
        <mxCell id="cu2-mT0G7-T65f8eakLL-4" value="PurchaseTicketCommand" style="swimlane;fontStyle=1;align=center;verticalAlign=top;childLayout=stackLayout;horizontal=1;startSize=36.8;horizontalStack=0;resizeParent=1;resizeParentMax=0;resizeLast=0;collapsible=0;marginBottom=0;" vertex="1" parent="1">
          <mxGeometry x="20" y="438" width="359" height="192.8" as="geometry" />
        </mxCell>
        <mxCell id="cu2-mT0G7-T65f8eakLL-5" value="-paymentSystem: PaymentSystem" style="text;strokeColor=none;fillColor=none;align=left;verticalAlign=top;spacingLeft=4;spacingRight=4;overflow=hidden;rotatable=0;points=[[0,0.5],[1,0.5]];portConstraint=eastwest;" vertex="1" parent="cu2-mT0G7-T65f8eakLL-4">
          <mxGeometry y="36.8" width="359" height="37" as="geometry" />
        </mxCell>
        <mxCell id="cu2-mT0G7-T65f8eakLL-6" value="-ticketDB: TicketDatabase" style="text;strokeColor=none;fillColor=none;align=left;verticalAlign=top;spacingLeft=4;spacingRight=4;overflow=hidden;rotatable=0;points=[[0,0.5],[1,0.5]];portConstraint=eastwest;" vertex="1" parent="cu2-mT0G7-T65f8eakLL-4">
          <mxGeometry y="73.8" width="359" height="37" as="geometry" />
        </mxCell>
        <mxCell id="cu2-mT0G7-T65f8eakLL-7" value="-ticketDetails: TicketDetails" style="text;strokeColor=none;fillColor=none;align=left;verticalAlign=top;spacingLeft=4;spacingRight=4;overflow=hidden;rotatable=0;points=[[0,0.5],[1,0.5]];portConstraint=eastwest;" vertex="1" parent="cu2-mT0G7-T65f8eakLL-4">
          <mxGeometry y="110.8" width="359" height="37" as="geometry" />
        </mxCell>
        <mxCell id="cu2-mT0G7-T65f8eakLL-8" style="line;strokeWidth=1;fillColor=none;align=left;verticalAlign=middle;spacingTop=-1;spacingLeft=3;spacingRight=3;rotatable=0;labelPosition=right;points=[];portConstraint=eastwest;strokeColor=inherit;" vertex="1" parent="cu2-mT0G7-T65f8eakLL-4">
          <mxGeometry y="147.8" width="359" height="8" as="geometry" />
        </mxCell>
        <mxCell id="cu2-mT0G7-T65f8eakLL-9" value="+execute()" style="text;strokeColor=none;fillColor=none;align=left;verticalAlign=top;spacingLeft=4;spacingRight=4;overflow=hidden;rotatable=0;points=[[0,0.5],[1,0.5]];portConstraint=eastwest;" vertex="1" parent="cu2-mT0G7-T65f8eakLL-4">
          <mxGeometry y="155.8" width="359" height="37" as="geometry" />
        </mxCell>
        <mxCell id="cu2-mT0G7-T65f8eakLL-10" value="ProcessRefundCommand" style="swimlane;fontStyle=1;align=center;verticalAlign=top;childLayout=stackLayout;horizontal=1;startSize=36.8;horizontalStack=0;resizeParent=1;resizeParentMax=0;resizeLast=0;collapsible=0;marginBottom=0;" vertex="1" parent="1">
          <mxGeometry x="429" y="438" width="357" height="192.8" as="geometry" />
        </mxCell>
        <mxCell id="cu2-mT0G7-T65f8eakLL-11" value="-paymentSystem: PaymentSystem" style="text;strokeColor=none;fillColor=none;align=left;verticalAlign=top;spacingLeft=4;spacingRight=4;overflow=hidden;rotatable=0;points=[[0,0.5],[1,0.5]];portConstraint=eastwest;" vertex="1" parent="cu2-mT0G7-T65f8eakLL-10">
          <mxGeometry y="36.8" width="357" height="37" as="geometry" />
        </mxCell>
        <mxCell id="cu2-mT0G7-T65f8eakLL-12" value="-ticketDB: TicketDatabase" style="text;strokeColor=none;fillColor=none;align=left;verticalAlign=top;spacingLeft=4;spacingRight=4;overflow=hidden;rotatable=0;points=[[0,0.5],[1,0.5]];portConstraint=eastwest;" vertex="1" parent="cu2-mT0G7-T65f8eakLL-10">
          <mxGeometry y="73.8" width="357" height="37" as="geometry" />
        </mxCell>
        <mxCell id="cu2-mT0G7-T65f8eakLL-13" value="-ticketId: String" style="text;strokeColor=none;fillColor=none;align=left;verticalAlign=top;spacingLeft=4;spacingRight=4;overflow=hidden;rotatable=0;points=[[0,0.5],[1,0.5]];portConstraint=eastwest;" vertex="1" parent="cu2-mT0G7-T65f8eakLL-10">
          <mxGeometry y="110.8" width="357" height="37" as="geometry" />
        </mxCell>
        <mxCell id="cu2-mT0G7-T65f8eakLL-14" style="line;strokeWidth=1;fillColor=none;align=left;verticalAlign=middle;spacingTop=-1;spacingLeft=3;spacingRight=3;rotatable=0;labelPosition=right;points=[];portConstraint=eastwest;strokeColor=inherit;" vertex="1" parent="cu2-mT0G7-T65f8eakLL-10">
          <mxGeometry y="147.8" width="357" height="8" as="geometry" />
        </mxCell>
        <mxCell id="cu2-mT0G7-T65f8eakLL-15" value="+execute()" style="text;strokeColor=none;fillColor=none;align=left;verticalAlign=top;spacingLeft=4;spacingRight=4;overflow=hidden;rotatable=0;points=[[0,0.5],[1,0.5]];portConstraint=eastwest;" vertex="1" parent="cu2-mT0G7-T65f8eakLL-10">
          <mxGeometry y="155.8" width="357" height="37" as="geometry" />
        </mxCell>
        <mxCell id="cu2-mT0G7-T65f8eakLL-16" value="RenewPassCommand" style="swimlane;fontStyle=1;align=center;verticalAlign=top;childLayout=stackLayout;horizontal=1;startSize=36.8;horizontalStack=0;resizeParent=1;resizeParentMax=0;resizeLast=0;collapsible=0;marginBottom=0;" vertex="1" parent="1">
          <mxGeometry x="836" y="438" width="343" height="192.8" as="geometry" />
        </mxCell>
        <mxCell id="cu2-mT0G7-T65f8eakLL-17" value="-paymentSystem: PaymentSystem" style="text;strokeColor=none;fillColor=none;align=left;verticalAlign=top;spacingLeft=4;spacingRight=4;overflow=hidden;rotatable=0;points=[[0,0.5],[1,0.5]];portConstraint=eastwest;" vertex="1" parent="cu2-mT0G7-T65f8eakLL-16">
          <mxGeometry y="36.8" width="343" height="37" as="geometry" />
        </mxCell>
        <mxCell id="cu2-mT0G7-T65f8eakLL-18" value="-ticketDB: TicketDatabase" style="text;strokeColor=none;fillColor=none;align=left;verticalAlign=top;spacingLeft=4;spacingRight=4;overflow=hidden;rotatable=0;points=[[0,0.5],[1,0.5]];portConstraint=eastwest;" vertex="1" parent="cu2-mT0G7-T65f8eakLL-16">
          <mxGeometry y="73.8" width="343" height="37" as="geometry" />
        </mxCell>
        <mxCell id="cu2-mT0G7-T65f8eakLL-19" value="-passDetails: PassDetails" style="text;strokeColor=none;fillColor=none;align=left;verticalAlign=top;spacingLeft=4;spacingRight=4;overflow=hidden;rotatable=0;points=[[0,0.5],[1,0.5]];portConstraint=eastwest;" vertex="1" parent="cu2-mT0G7-T65f8eakLL-16">
          <mxGeometry y="110.8" width="343" height="37" as="geometry" />
        </mxCell>
        <mxCell id="cu2-mT0G7-T65f8eakLL-20" style="line;strokeWidth=1;fillColor=none;align=left;verticalAlign=middle;spacingTop=-1;spacingLeft=3;spacingRight=3;rotatable=0;labelPosition=right;points=[];portConstraint=eastwest;strokeColor=inherit;" vertex="1" parent="cu2-mT0G7-T65f8eakLL-16">
          <mxGeometry y="147.8" width="343" height="8" as="geometry" />
        </mxCell>
        <mxCell id="cu2-mT0G7-T65f8eakLL-21" value="+execute()" style="text;strokeColor=none;fillColor=none;align=left;verticalAlign=top;spacingLeft=4;spacingRight=4;overflow=hidden;rotatable=0;points=[[0,0.5],[1,0.5]];portConstraint=eastwest;" vertex="1" parent="cu2-mT0G7-T65f8eakLL-16">
          <mxGeometry y="155.8" width="343" height="37" as="geometry" />
        </mxCell>
        <mxCell id="cu2-mT0G7-T65f8eakLL-22" value="MobileApp" style="swimlane;fontStyle=1;align=center;verticalAlign=top;childLayout=stackLayout;horizontal=1;startSize=40;horizontalStack=0;resizeParent=1;resizeParentMax=0;resizeLast=0;collapsible=0;marginBottom=0;" vertex="1" parent="1">
          <mxGeometry x="471" y="20" width="274" height="168" as="geometry" />
        </mxCell>
        <mxCell id="cu2-mT0G7-T65f8eakLL-23" value="-currentCommand: Command" style="text;strokeColor=none;fillColor=none;align=left;verticalAlign=top;spacingLeft=4;spacingRight=4;overflow=hidden;rotatable=0;points=[[0,0.5],[1,0.5]];portConstraint=eastwest;" vertex="1" parent="cu2-mT0G7-T65f8eakLL-22">
          <mxGeometry y="40" width="274" height="40" as="geometry" />
        </mxCell>
        <mxCell id="cu2-mT0G7-T65f8eakLL-24" style="line;strokeWidth=1;fillColor=none;align=left;verticalAlign=middle;spacingTop=-1;spacingLeft=3;spacingRight=3;rotatable=0;labelPosition=right;points=[];portConstraint=eastwest;strokeColor=inherit;" vertex="1" parent="cu2-mT0G7-T65f8eakLL-22">
          <mxGeometry y="80" width="274" height="8" as="geometry" />
        </mxCell>
        <mxCell id="cu2-mT0G7-T65f8eakLL-25" value="+setCommand(Command)" style="text;strokeColor=none;fillColor=none;align=left;verticalAlign=top;spacingLeft=4;spacingRight=4;overflow=hidden;rotatable=0;points=[[0,0.5],[1,0.5]];portConstraint=eastwest;" vertex="1" parent="cu2-mT0G7-T65f8eakLL-22">
          <mxGeometry y="88" width="274" height="40" as="geometry" />
        </mxCell>
        <mxCell id="cu2-mT0G7-T65f8eakLL-26" value="+confirmAction()" style="text;strokeColor=none;fillColor=none;align=left;verticalAlign=top;spacingLeft=4;spacingRight=4;overflow=hidden;rotatable=0;points=[[0,0.5],[1,0.5]];portConstraint=eastwest;" vertex="1" parent="cu2-mT0G7-T65f8eakLL-22">
          <mxGeometry y="128" width="274" height="40" as="geometry" />
        </mxCell>
        <mxCell id="cu2-mT0G7-T65f8eakLL-27" value="PaymentSystem" style="swimlane;fontStyle=1;align=center;verticalAlign=top;childLayout=stackLayout;horizontal=1;startSize=36.888888888888886;horizontalStack=0;resizeParent=1;resizeParentMax=0;resizeLast=0;collapsible=0;marginBottom=0;" vertex="1" parent="1">
          <mxGeometry x="70" y="692" width="259" height="155.88888888888889" as="geometry" />
        </mxCell>
        <mxCell id="cu2-mT0G7-T65f8eakLL-28" style="line;strokeWidth=1;fillColor=none;align=left;verticalAlign=middle;spacingTop=-1;spacingLeft=3;spacingRight=3;rotatable=0;labelPosition=right;points=[];portConstraint=eastwest;strokeColor=inherit;" vertex="1" parent="cu2-mT0G7-T65f8eakLL-27">
          <mxGeometry y="36.888888888888886" width="259" height="8" as="geometry" />
        </mxCell>
        <mxCell id="cu2-mT0G7-T65f8eakLL-29" value="+processPayment()" style="text;strokeColor=none;fillColor=none;align=left;verticalAlign=top;spacingLeft=4;spacingRight=4;overflow=hidden;rotatable=0;points=[[0,0.5],[1,0.5]];portConstraint=eastwest;" vertex="1" parent="cu2-mT0G7-T65f8eakLL-27">
          <mxGeometry y="44.888888888888886" width="259" height="37" as="geometry" />
        </mxCell>
        <mxCell id="cu2-mT0G7-T65f8eakLL-30" value="+validatePayment()" style="text;strokeColor=none;fillColor=none;align=left;verticalAlign=top;spacingLeft=4;spacingRight=4;overflow=hidden;rotatable=0;points=[[0,0.5],[1,0.5]];portConstraint=eastwest;" vertex="1" parent="cu2-mT0G7-T65f8eakLL-27">
          <mxGeometry y="81.88888888888889" width="259" height="37" as="geometry" />
        </mxCell>
        <mxCell id="cu2-mT0G7-T65f8eakLL-31" value="+initiateRefund(amount)" style="text;strokeColor=none;fillColor=none;align=left;verticalAlign=top;spacingLeft=4;spacingRight=4;overflow=hidden;rotatable=0;points=[[0,0.5],[1,0.5]];portConstraint=eastwest;" vertex="1" parent="cu2-mT0G7-T65f8eakLL-27">
          <mxGeometry y="118.88888888888889" width="259" height="37" as="geometry" />
        </mxCell>
        <mxCell id="cu2-mT0G7-T65f8eakLL-32" value="TicketDatabase" style="swimlane;fontStyle=1;align=center;verticalAlign=top;childLayout=stackLayout;horizontal=1;startSize=34.54545454545455;horizontalStack=0;resizeParent=1;resizeParentMax=0;resizeLast=0;collapsible=0;marginBottom=0;" vertex="1" parent="1">
          <mxGeometry x="864" y="680" width="286" height="182.54545454545456" as="geometry" />
        </mxCell>
        <mxCell id="cu2-mT0G7-T65f8eakLL-33" style="line;strokeWidth=1;fillColor=none;align=left;verticalAlign=middle;spacingTop=-1;spacingLeft=3;spacingRight=3;rotatable=0;labelPosition=right;points=[];portConstraint=eastwest;strokeColor=inherit;" vertex="1" parent="cu2-mT0G7-T65f8eakLL-32">
          <mxGeometry y="34.54545454545455" width="286" height="8" as="geometry" />
        </mxCell>
        <mxCell id="cu2-mT0G7-T65f8eakLL-34" value="+storeTicketPurchase()" style="text;strokeColor=none;fillColor=none;align=left;verticalAlign=top;spacingLeft=4;spacingRight=4;overflow=hidden;rotatable=0;points=[[0,0.5],[1,0.5]];portConstraint=eastwest;" vertex="1" parent="cu2-mT0G7-T65f8eakLL-32">
          <mxGeometry y="42.54545454545455" width="286" height="35" as="geometry" />
        </mxCell>
        <mxCell id="cu2-mT0G7-T65f8eakLL-35" value="+getOptions()" style="text;strokeColor=none;fillColor=none;align=left;verticalAlign=top;spacingLeft=4;spacingRight=4;overflow=hidden;rotatable=0;points=[[0,0.5],[1,0.5]];portConstraint=eastwest;" vertex="1" parent="cu2-mT0G7-T65f8eakLL-32">
          <mxGeometry y="77.54545454545455" width="286" height="35" as="geometry" />
        </mxCell>
        <mxCell id="cu2-mT0G7-T65f8eakLL-36" value="+verifyTicketStatus(ticketId)" style="text;strokeColor=none;fillColor=none;align=left;verticalAlign=top;spacingLeft=4;spacingRight=4;overflow=hidden;rotatable=0;points=[[0,0.5],[1,0.5]];portConstraint=eastwest;" vertex="1" parent="cu2-mT0G7-T65f8eakLL-32">
          <mxGeometry y="112.54545454545455" width="286" height="35" as="geometry" />
        </mxCell>
        <mxCell id="cu2-mT0G7-T65f8eakLL-37" value="+updatePassValidity()" style="text;strokeColor=none;fillColor=none;align=left;verticalAlign=top;spacingLeft=4;spacingRight=4;overflow=hidden;rotatable=0;points=[[0,0.5],[1,0.5]];portConstraint=eastwest;" vertex="1" parent="cu2-mT0G7-T65f8eakLL-32">
          <mxGeometry y="147.54545454545456" width="286" height="35" as="geometry" />
        </mxCell>
        <mxCell id="cu2-mT0G7-T65f8eakLL-38" value="" style="curved=1;dashed=1;startArrow=block;startSize=16;startFill=0;endArrow=none;exitX=0;exitY=0.62;entryX=0.5;entryY=0;rounded=0;" edge="1" parent="1" source="cu2-mT0G7-T65f8eakLL-1" target="cu2-mT0G7-T65f8eakLL-4">
          <mxGeometry relative="1" as="geometry">
            <Array as="points">
              <mxPoint x="200" y="413" />
            </Array>
          </mxGeometry>
        </mxCell>
        <mxCell id="cu2-mT0G7-T65f8eakLL-39" value="" style="curved=1;dashed=1;startArrow=block;startSize=16;startFill=0;endArrow=none;exitX=0.5;exitY=1;entryX=0.5;entryY=0;rounded=0;" edge="1" parent="1" source="cu2-mT0G7-T65f8eakLL-1" target="cu2-mT0G7-T65f8eakLL-10">
          <mxGeometry relative="1" as="geometry">
            <Array as="points" />
          </mxGeometry>
        </mxCell>
        <mxCell id="cu2-mT0G7-T65f8eakLL-40" value="" style="curved=1;dashed=1;startArrow=block;startSize=16;startFill=0;endArrow=none;exitX=1;exitY=0.62;entryX=0.5;entryY=0;rounded=0;" edge="1" parent="1" source="cu2-mT0G7-T65f8eakLL-1" target="cu2-mT0G7-T65f8eakLL-16">
          <mxGeometry relative="1" as="geometry">
            <Array as="points">
              <mxPoint x="1007" y="413" />
            </Array>
          </mxGeometry>
        </mxCell>
        <mxCell id="cu2-mT0G7-T65f8eakLL-41" value="" style="curved=1;startArrow=none;endArrow=open;endSize=12;exitX=0.5;exitY=1;entryX=0.5;entryY=0;rounded=0;" edge="1" parent="1" source="cu2-mT0G7-T65f8eakLL-22" target="cu2-mT0G7-T65f8eakLL-1">
          <mxGeometry relative="1" as="geometry">
            <Array as="points" />
          </mxGeometry>
        </mxCell>
        <mxCell id="cu2-mT0G7-T65f8eakLL-42" value="" style="curved=1;startArrow=none;endArrow=open;endSize=12;exitX=0.43;exitY=1;entryX=0.42;entryY=0;rounded=0;" edge="1" parent="1" source="cu2-mT0G7-T65f8eakLL-4" target="cu2-mT0G7-T65f8eakLL-27">
          <mxGeometry relative="1" as="geometry">
            <Array as="points">
              <mxPoint x="170" y="655" />
            </Array>
          </mxGeometry>
        </mxCell>
        <mxCell id="cu2-mT0G7-T65f8eakLL-43" value="" style="curved=1;startArrow=none;endArrow=open;endSize=12;exitX=1;exitY=0.77;entryX=0;entryY=0.27;rounded=0;" edge="1" parent="1" source="cu2-mT0G7-T65f8eakLL-4" target="cu2-mT0G7-T65f8eakLL-32">
          <mxGeometry relative="1" as="geometry">
            <Array as="points">
              <mxPoint x="614" y="655" />
            </Array>
          </mxGeometry>
        </mxCell>
        <mxCell id="cu2-mT0G7-T65f8eakLL-44" value="" style="curved=1;startArrow=none;endArrow=open;endSize=12;exitX=0;exitY=1;entryX=1;entryY=0;rounded=0;" edge="1" parent="1" source="cu2-mT0G7-T65f8eakLL-10" target="cu2-mT0G7-T65f8eakLL-27">
          <mxGeometry relative="1" as="geometry">
            <Array as="points">
              <mxPoint x="384" y="655" />
            </Array>
          </mxGeometry>
        </mxCell>
        <mxCell id="cu2-mT0G7-T65f8eakLL-45" value="" style="curved=1;startArrow=none;endArrow=open;endSize=12;exitX=0.99;exitY=1;entryX=0;entryY=0;rounded=0;" edge="1" parent="1" source="cu2-mT0G7-T65f8eakLL-10" target="cu2-mT0G7-T65f8eakLL-32">
          <mxGeometry relative="1" as="geometry">
            <Array as="points">
              <mxPoint x="828" y="655" />
            </Array>
          </mxGeometry>
        </mxCell>
        <mxCell id="cu2-mT0G7-T65f8eakLL-46" value="" style="curved=1;startArrow=none;endArrow=open;endSize=12;exitX=0;exitY=0.76;entryX=1;entryY=0.27;rounded=0;" edge="1" parent="1" source="cu2-mT0G7-T65f8eakLL-16" target="cu2-mT0G7-T65f8eakLL-27">
          <mxGeometry relative="1" as="geometry">
            <Array as="points">
              <mxPoint x="594" y="655" />
            </Array>
          </mxGeometry>
        </mxCell>
        <mxCell id="cu2-mT0G7-T65f8eakLL-47" value="" style="curved=1;startArrow=none;endArrow=open;endSize=12;exitX=0.57;exitY=1;entryX=0.59;entryY=0;rounded=0;" edge="1" parent="1" source="cu2-mT0G7-T65f8eakLL-16" target="cu2-mT0G7-T65f8eakLL-32">
          <mxGeometry relative="1" as="geometry">
            <Array as="points">
              <mxPoint x="1037" y="655" />
            </Array>
          </mxGeometry>
        </mxCell>
      </root>
    </mxGraphModel>
  </diagram>
</mxfile>
